#!OML:ASF Y:\EmotionMaleHayes\Project 1\Capture day 1\Session 1\Male1.ASF
:FULLY-SPECIFIED
:DEGREES
305
root 40.1412 16.0883 -1.41685 704.82 88.5251 709.48
lowerback 11.8999 3.41268 -4.3204
upperback 3.06872 4.0588 -2.67462
thorax -3.53662 2.10501 -0.969341
lowerneck -22.7287 0.552765 3.17493
upperneck 21.9206 -0.649124 1.58884
head 10.8381 0.23327 -0.041187
rclavicle 1.0138e-014 3.18055e-014
rhumerus -31.2478 11.6767 -95.5255
rradius 40.7668
rwrist -16.819
rhand -18.4631 -22.244
rfingers 7.12502
rthumb 7.82338 -52.0792
lclavicle 1.0138e-014 3.18055e-014
lhumerus -42.2738 -16.4223 86.7863
lradius 42.7963
lwrist 20.2851
lhand -31.3288 -28.3818
lfingers 7.12502
lthumb -4.6006 1.54822
rfemur -0.765507 -0.46213 18.7972
rtibia 68.2152
rfoot -11.3136 -4.18881
rtoes 6.32035
lfemur -23.0054 3.65504 -16.0462
ltibia 26.3622
lfoot -0.0913761 9.19335
ltoes 6.55157
306
root 40.2798 16.182 -1.4416 728.361 88.3355 733.081
lowerback 11.8381 3.39008 -4.83675
upperback 3.14183 3.97653 -2.93833
thorax -3.43824 2.0705 -0.938251
lowerneck -23.3062 0.626505 3.28508
upperneck 22.5917 -0.673108 1.78911
head 11.1985 0.27877 0.0146106
rclavicle 3.77691e-015 2.8625e-014
rhumerus -31.5323 13.2453 -94.6982
rradius 36.6911
rwrist -13.6125
rhand -17.6197 -19.9707
rfingers 7.12502
rthumb 8.63732 -49.774
lclavicle 3.77691e-015 2.8625e-014
lhumerus -41.8947 -19.4724 88.0761
lradius 46.2287
lwrist 19.9727
lhand -30.8545 -28.5774
lfingers 7.12502
lthumb -4.14267 1.36205
rfemur -2.23616 -0.837652 17.882
rtibia 68.7631
rfoot -10.6823 -3.89804
rtoes 8.03182
lfemur -21.4218 3.36758 -16.8417
ltibia 24.7679
lfoot -0.116044 9.79223
ltoes 10.3646
307
root 40.4194 16.2739 -1.47487 732.259 87.9227 737.032
lowerback 11.7415 3.40476 -4.87528
upperback 3.23845 4.00586 -3.02926
thorax -3.28034 2.08521 -1.00538
lowerneck -23.9005 0.580905 3.13167
upperneck 23.1288 -0.788794 2.04219
head 11.5157 0.263557 0.119113
rclavicle 2.38542e-015 -5.88403e-014
rhumerus -32.2314 14.9539 -93.7635
rradius 33.9741
rwrist -8.00741
rhand -16.0608 -20.3499
rfingers 7.12502
rthumb 10.1415 -50.0855
lclavicle 2.38542e-015 -5.88403e-014
lhumerus -41.4181 -22.5101 89.1447
lradius 49.7532
lwrist 19.0968
lhand -30.5102 -28.4497
lfingers 7.12502
lthumb -3.81021 1.49597
rfemur -3.5846 -0.973862 17.4548
rtibia 69.0897
rfoot -10.6368 -3.40787
rtoes 6.17741
lfemur -19.8125 3.1934 -17.1879
ltibia 23.1499
lfoot -0.0582732 10.2963
ltoes 12.4311
308
root 40.5379 16.3686 -1.50412 723.276 87.6195 728.012
lowerback 11.7952 3.38221 -4.50155
upperback 3.28375 4.0188 -2.92311
thorax -3.2464 2.08804 -1.1051
lowerneck -24.6503 0.301349 2.68707
upperneck 23.7236 -1.16165 2.38697
head 11.89 0.12166 0.264226
rclavicle 2.38542e-014 -5.24792e-014
rhumerus -33.4874 17.2827 -93.1406
rradius 32.0559
rwrist -2.49456
rhand -17.9104 -17.3101
rfingers 7.12502
rthumb 8.35678 -47.1248
lclavicle 2.38542e-014 -5.24792e-014
lhumerus -40.6639 -25.6632 89.9416
lradius 52.8243
lwrist 18.3765
lhand -29.9603 -29.1968
lfingers 7.12502
lthumb -3.27915 0.757759
rfemur -5.01942 -0.967133 17.7576
rtibia 69.1313
rfoot -10.9634 -2.99081
rtoes 2.53551
lfemur -18.5572 3.14113 -16.8782
ltibia 21.8739
lfoot -0.229394 10.5007
ltoes 12.3155
309
root 40.6514 16.4583 -1.52696 739.479 87.3056 744.316
lowerback 12.0593 3.42574 -5.2635
upperback 3.33607 3.9744 -3.06439
thorax -3.37247 2.07439 -0.839449
lowerneck -25.0045 0.312497 2.57349
upperneck 23.9386 -1.15903 2.50821
head 12.043 0.136099 0.331638
rclavicle -4.96962e-015 3.33958e-014
rhumerus -35.178 19.3446 -92.5318
rradius 31.4171
rwrist 4.30425
rhand -18.4182 -17.0364
rfingers 7.12502
rthumb 7.86674 -46.87
lclavicle -4.96962e-015 3.33958e-014
lhumerus -39.7277 -29.0574 90.4903
lradius 55.7448
lwrist 17.9179
lhand -29.7789 -29.8693
lfingers 7.12502
lthumb -3.10394 0.0878123
rfemur -6.08923 -1.13959 16.788
rtibia 68.6313
rfoot -11.1554 -2.48917
rtoes 0.132376
lfemur -17.2443 2.9092 -17.8935
ltibia 20.6627
lfoot -0.471626 10.7045
ltoes 11.7499
310
root 40.776 16.5375 -1.52995 739.792 86.809 745.044
lowerback 12.5171 3.59752 -5.76832
upperback 3.44208 4.11809 -2.95522
thorax -3.55498 2.15107 -0.495889
lowerneck -25.2087 0.22567 2.18985
upperneck 23.8326 -1.27587 2.97378
head 12.0482 0.111114 0.550429
rclavicle -5.36719e-015 -3.10104e-014
rhumerus -37.1748 21.1934 -91.8849
rradius 31.6918
rwrist 10.1466
rhand -18.6136 -16.7471
rfingers 7.12502
rthumb 7.67814 -46.5877
lclavicle -5.36719e-015 -3.10104e-014
lhumerus -38.776 -32.0171 90.6771
lradius 58.823
lwrist 17.4443
lhand -29.7691 -30.5272
lfingers 7.12502
lthumb -3.09449 -0.569875
rfemur -7.11934 -0.893314 16.7214
rtibia 68.5468
rfoot -11.737 -2.09218
rtoes 3.39823
lfemur -15.4941 2.95291 -17.879
ltibia 19.343
lfoot -0.613737 11.254
ltoes 11.5818
